<?xml version="1.0" encoding="utf-8"?>
<!-- Generator: Adobe Illustrator 16.0.0, SVG Export Plug-In . SVG Version: 6.00 Build 0)  -->
<!DOCTYPE svg PUBLIC "-//W3C//DTD SVG 1.1//EN" "http://www.w3.org/Graphics/SVG/1.1/DTD/svg11.dtd">
<svg version="1.1" id="Layer_1" xmlns="http://www.w3.org/2000/svg" xmlns:xlink="http://www.w3.org/1999/xlink" x="0px" y="0px"
	 width="50px" height="50px" viewBox="0 0 50 50" enable-background="new 0 0 50 50" xml:space="preserve">
<path fill="#0F1925" d="M22.058,18.108c0,0.567,0.02,3.34,0.02,3.34H19.71V25l2.35-0.007l0.018,11.257h4.736V25l3.035-0.007
	c0,0,0.229-1.56,0.371-3.546c-0.408,0-3.406,0-3.406,0s-0.075-2.461-0.075-2.846c0-0.388,0.509-0.909,1.01-0.909s1.56,0,2.542,0
	c0-0.515,0-2.297,0-3.943c-1.31,0-2.799,0-3.455,0C21.942,13.75,22.058,17.542,22.058,18.108z"/>
<circle fill="#0185D3" cx="94.084" cy="43.333" r="22.5"/>
<path fill="#0F1925" d="M86.748,18.021c-0.826,0.368-1.715,0.615-2.65,0.728c0.955-0.571,1.686-1.477,2.033-2.556
	c-0.893,0.529-1.883,0.914-2.932,1.12c-0.838-0.897-2.039-1.457-3.367-1.457c-2.551,0-4.617,2.066-4.617,4.617
	c0,0.359,0.039,0.714,0.117,1.052c-3.838-0.192-7.238-2.032-9.516-4.823c-0.396,0.682-0.625,1.476-0.625,2.321
	c0,1.6,0.816,3.014,2.055,3.841c-0.758-0.024-1.469-0.23-2.09-0.579c0,0.021,0,0.038,0,0.061c0,2.234,1.59,4.102,3.701,4.525
	c-0.387,0.105-0.795,0.163-1.215,0.163c-0.299,0-0.586-0.027-0.869-0.083c0.588,1.836,2.293,3.166,4.312,3.207
	c-1.58,1.24-3.57,1.977-5.732,1.977c-0.373,0-0.74-0.024-1.102-0.063c2.043,1.308,4.471,2.072,7.076,2.072
	c8.49,0,13.135-7.033,13.135-13.134c0-0.2-0.006-0.397-0.014-0.598C85.348,19.761,86.131,18.947,86.748,18.021z"/>
</svg>
